<?xml version="1.0" encoding="UTF-8"?>
<svg width="117px" height="104px" viewBox="0 0 117 104" version="1.1" xmlns="http://www.w3.org/2000/svg" xmlns:xlink="http://www.w3.org/1999/xlink">
    <!-- Generator: Sketch 62 (91390) - https://sketch.com -->
    <title>DM_icon</title>
    <desc>Created with Sketch.</desc>
    <g id="Final" stroke="none" stroke-width="1" fill="none" fill-rule="evenodd">
        <g id="Talent-Connect-1.1" transform="translate(-1116.000000, -1780.000000)" fill="#D0382B" fill-rule="nonzero" stroke="#D0382B" stroke-width="1.5">
            <g id="Our_key_qualifications" transform="translate(142.000000, 1631.000000)">
                <g id="DM" transform="translate(891.000000, 85.000000)">
                    <g id="DM_icon" transform="translate(84.000000, 65.000000)">
                        <path d="M100.970204,24.1170381 L100.970204,5.65823537 C100.964103,3.64530084 99.8895231,1.78619587 98.1461318,0.772376838 C96.4027405,-0.241442194 94.2514163,-0.258269112 92.4923006,0.728154515 C75.5299387,10.2180565 56.6790913,15.8620296 37.2812615,17.2584256 C37.130078,17.2584256 19.4503345,17.3483271 19.4503345,17.3483271 C15.0548777,17.3552651 11.3562107,20.633854 10.8328769,24.9870524 L7.20447367,24.9870524 C3.22754513,24.9918462 0.00480596121,28.2064638 0,32.1733702 L0,47.9612292 C0.00960662187,51.9247375 3.23094303,55.1340658 7.20447367,55.1388469 L10.8328769,55.1388469 C11.1991738,58.1787419 13.145021,60.8008343 15.9527631,62.03806 L28.8644127,97.583943 C29.6772617,99.802327 31.7908677,101.279628 34.1587414,101.284404 L47.1169089,101.284404 C48.954564,101.284404 50.6764889,100.389407 51.7310917,98.888278 C52.7856946,97.3871487 53.040597,95.4675069 52.414145,93.74428 L41.3196045,63.2183794 C59.3057016,65.061696 76.7213847,70.5663833 92.4893933,79.3919446 C94.253324,80.3892675 96.4175568,80.368244 98.1616806,79.3368437 C99.9076311,78.3272271 100.978918,76.4632833 100.970204,74.4502636 L100.970204,55.9914609 C108.995908,54.9478421 115,48.1274656 115,40.0542495 C115,31.9810334 108.995908,25.1606569 100.970204,24.1170381 Z M10.5362602,49.596856 L6.66832033,49.596856 C5.68205991,49.596856 4.88052253,48.8573438 4.88052253,47.952529 L4.88052253,32.1646701 C4.88052253,31.2569552 5.6836662,30.5203431 6.66832033,30.5203431 L10.5362602,30.5203431 L10.5362602,49.596856 Z M18.1798119,56.9600767 C17.0544799,56.460084 16.3290471,55.3468461 16.3278144,54.1180301 L16.3278144,25.9875688 L16.3278144,25.9875688 C16.3294173,24.2680572 17.7264786,22.8745165 19.4503345,22.8729177 L34.5686812,22.8729177 L34.5686812,57.2326812 L19.2468183,57.2326812 C18.8768503,57.2113191 18.5145216,57.1187494 18.1798119,56.9600767 Z M47.1925007,95.635111 C47.208493,95.6566457 47.208493,95.6860775 47.1925007,95.7076122 C47.1812154,95.732021 47.1552222,95.7461634 47.1285384,95.7424128 L34.1587414,95.7424128 C34.1271627,95.7408724 34.099102,95.7218392 34.086057,95.693112 L22.1280263,62.7775721 L35.2490068,62.7775721 L47.1925007,95.635111 Z M95.4142119,74.4502636 C95.4215798,74.4958823 95.3962002,74.5404862 95.353157,74.5575653 C95.3087713,74.5890507 95.2492666,74.5890507 95.2048809,74.5575653 C78.2567301,65.0730482 59.4886063,59.2725767 40.1333957,57.5371862 L40.1333957,22.5742128 C59.4880763,20.8361469 78.2556507,15.0358451 95.2048809,5.55383366 C95.2492666,5.52234825 95.3087713,5.52234825 95.353157,5.55383366 C95.3962002,5.57091281 95.4215798,5.61551666 95.4142119,5.66113542 L95.4142119,74.4502636 Z M101.19179,50.7032775 L101.19179,30.4463968 C106.584912,31.39343 110.662378,35.5748226 110.662378,40.5748371 C110.662378,45.5748517 106.584912,49.7562442 101.19179,50.7032775 Z" id="Shape"></path>
                    </g>
                </g>
            </g>
        </g>
    </g>
</svg>