<svg id="Layer_1" data-name="Layer 1" xmlns="http://www.w3.org/2000/svg" viewBox="0 0 547.82 59"><defs><style>.cls-1{fill:#e2231a;}.cls-2{fill:#fff;}.cls-3{isolation:isolate;}.cls-4{fill:#414042;}</style></defs><title>Logo_1</title><g id="Symbols"><g id="Group"><rect id="Rectangle" class="cls-1" width="117.9" height="59"/><path id="Shape" class="cls-2" d="M40.53,25A9,9,0,0,0,38,18.23c-2-2-5.08-3.09-8.78-3.09H15.59V44.92H22.1V35.36h5.66L34,44.92h7.63L34.27,34.24A9.29,9.29,0,0,0,40.53,25Zm-11.9,4.5H22.1V21h6.52c3.11,0,5.08,1.41,5.08,4.23,0,2.54-2,4.23-5.07,4.23Z" transform="translate(0 -0.52)"/><polygon id="Path" class="cls-2" points="53.85 32.31 67.74 32.31 67.74 26.41 53.85 26.41 53.85 20.51 69.72 20.51 69.72 14.61 47.33 14.61 47.33 44.39 70 44.39 70 38.49 53.85 38.49 53.85 32.31"/><path id="Shape-2" data-name="Shape" class="cls-2" d="M88.41,15.13H76.81v29.5h11.6c9.32,0,15.87-6.47,15.87-14.89C104.3,21.59,97.78,15.13,88.41,15.13Zm0,23.6H83.35V21h5.06c5.39,0,9.07,3.65,9.07,9,0,5.08-3.66,8.73-9.07,8.73Z" transform="translate(0 -0.52)"/></g><g class="cls-3"><path class="cls-4" d="M164.57,10.35H149.16V52.1h-3.8V10.35H130V7.14h34.58Z" transform="translate(0 -0.52)"/></g><g class="cls-3"><path class="cls-4" d="M188.57,52.1a17.35,17.35,0,0,1-.71-4.66,12.9,12.9,0,0,1-5,3.9,15.13,15.13,0,0,1-6.38,1.38A11.18,11.18,0,0,1,168.73,50a8.73,8.73,0,0,1-3-6.79,8.93,8.93,0,0,1,4.06-7.72q4.06-2.85,11.32-2.84h6.7v-3.8a7.34,7.34,0,0,0-2.21-5.64q-2.2-2.05-6.44-2a10.07,10.07,0,0,0-6.39,2,5.85,5.85,0,0,0-2.53,4.75l-3.71,0a8.61,8.61,0,0,1,3.71-6.9,14.23,14.23,0,0,1,9.11-2.92q5.58,0,8.81,2.8a10,10,0,0,1,3.32,7.79V44.47a19.6,19.6,0,0,0,1,7.26v.37ZM177,49.44a12.33,12.33,0,0,0,6.62-1.79,10.55,10.55,0,0,0,4.25-4.78V35.52h-6.61q-5.53.06-8.65,2a6.07,6.07,0,0,0-3.12,5.39,6,6,0,0,0,2.09,4.66A7.82,7.82,0,0,0,177,49.44Z" transform="translate(0 -0.52)"/><path class="cls-4" d="M205.49,52.1h-3.71V4.67h3.71Z" transform="translate(0 -0.52)"/><path class="cls-4" d="M228.46,52.72a14.48,14.48,0,0,1-7.7-2.1,14.31,14.31,0,0,1-5.36-5.85,18.24,18.24,0,0,1-1.91-8.42V35a19.7,19.7,0,0,1,1.86-8.67,14.81,14.81,0,0,1,5.21-6.07,12.84,12.84,0,0,1,7.22-2.21,12,12,0,0,1,9.65,4.16C239.81,25,241,28.78,241,33.57v2.07H217.16v.71a14,14,0,0,0,3.26,9.47,10.36,10.36,0,0,0,8.2,3.78,12,12,0,0,0,5.23-1.08A11.64,11.64,0,0,0,238,45.06l2.32,1.76Q236.21,52.72,228.46,52.72Zm-.68-31.5a9.22,9.22,0,0,0-7,3.06,14.13,14.13,0,0,0-3.48,8.21h20.05v-.4a12.3,12.3,0,0,0-2.75-7.84A8.53,8.53,0,0,0,227.78,21.22Z" transform="translate(0 -0.52)"/><path class="cls-4" d="M251.71,18.69l.13,5.71a13.22,13.22,0,0,1,4.69-4.71,12.19,12.19,0,0,1,6.21-1.62q5.37,0,8,3c1.75,2,2.63,5,2.65,9.08V52.1h-3.67v-22c0-3-.66-5.21-1.9-6.67s-3.24-2.2-6-2.2a9.34,9.34,0,0,0-6.06,2.15,12.54,12.54,0,0,0-3.91,5.79V52.1h-3.68V18.69Z" transform="translate(0 -0.52)"/><path class="cls-4" d="M288.68,10.14v8.55h6.91v3h-6.91V44a7,7,0,0,0,1,4.15A3.91,3.91,0,0,0,293,49.51a24.18,24.18,0,0,0,3-.31l.15,3a12.25,12.25,0,0,1-3.95.52c-2.53,0-4.38-.74-5.53-2.21S285,46.87,285,44V21.72h-6.14v-3H285V10.14Z" transform="translate(0 -0.52)"/></g><g class="cls-3"><path class="cls-4" d="M352.7,37.46q-.69,7.2-5.31,11.23t-12.33,4a17.51,17.51,0,0,1-9.46-2.55,16.68,16.68,0,0,1-6.31-7.24A26,26,0,0,1,317,32v-4.2a26.36,26.36,0,0,1,2.25-11.21,17,17,0,0,1,6.47-7.47,18.06,18.06,0,0,1,9.75-2.63q7.44,0,12,4T352.7,22h-7.78q-.57-4.84-2.83-7t-6.65-2.15a9.11,9.11,0,0,0-7.83,3.73q-2.73,3.72-2.8,10.92v4q0,7.29,2.61,11.13a8.67,8.67,0,0,0,7.64,3.83q4.6,0,6.92-2.07c1.55-1.38,2.52-3.68,2.94-6.89Z" transform="translate(0 -0.52)"/><path class="cls-4" d="M357.54,35.08a19.63,19.63,0,0,1,1.95-8.84,14.18,14.18,0,0,1,5.47-6,15.38,15.38,0,0,1,8.09-2.12,14.57,14.57,0,0,1,11,4.36q4.22,4.35,4.56,11.54l0,1.76a19.86,19.86,0,0,1-1.9,8.84,14.11,14.11,0,0,1-5.43,6,15.53,15.53,0,0,1-8.17,2.13A14.49,14.49,0,0,1,361.79,48q-4.25-4.71-4.25-12.55Zm7.51.65q0,5.16,2.13,8.08a7,7,0,0,0,5.93,2.92,6.84,6.84,0,0,0,5.91-3c1.41-2,2.12-4.87,2.12-8.68a13.27,13.27,0,0,0-2.18-8,7.33,7.33,0,0,0-11.75,0C365.77,29,365.05,31.86,365.05,35.73Z" transform="translate(0 -0.52)"/><path class="cls-4" d="M401.92,18.69l.21,3.86a12,12,0,0,1,9.73-4.48q10.44,0,10.62,12V52.1H415V30.45a6.92,6.92,0,0,0-1.37-4.71q-1.38-1.51-4.5-1.52a7.24,7.24,0,0,0-6.76,4.1V52.1h-7.5V18.69Z" transform="translate(0 -0.52)"/><path class="cls-4" d="M437.09,18.69l.21,3.86A12,12,0,0,1,447,18.07q10.44,0,10.62,12V52.1h-7.5V30.45a6.92,6.92,0,0,0-1.37-4.71q-1.38-1.51-4.5-1.52a7.24,7.24,0,0,0-6.76,4.1V52.1H430V18.69Z" transform="translate(0 -0.52)"/><path class="cls-4" d="M480,52.72a15.49,15.49,0,0,1-11.56-4.5q-4.44-4.48-4.44-12v-.93a20.17,20.17,0,0,1,1.93-8.94,14.84,14.84,0,0,1,5.42-6.13,14.36,14.36,0,0,1,7.79-2.19q6.83,0,10.54,4.36t3.72,12.32v3H471.58a10.09,10.09,0,0,0,2.76,6.55,8.33,8.33,0,0,0,6.1,2.41,10.16,10.16,0,0,0,8.4-4.17l4.05,3.86a13.6,13.6,0,0,1-5.36,4.65A16.81,16.81,0,0,1,480,52.72Zm-.9-28.63a6.31,6.31,0,0,0-5,2.16,11.21,11.21,0,0,0-2.43,6H486v-.56a9.07,9.07,0,0,0-2-5.7A6.29,6.29,0,0,0,479.11,24.09Z" transform="translate(0 -0.52)"/><path class="cls-4" d="M513,46.73a6.78,6.78,0,0,0,4.66-1.64,5.61,5.61,0,0,0,2-4.05h7.07a11,11,0,0,1-1.95,5.83,12.72,12.72,0,0,1-4.94,4.27,14.72,14.72,0,0,1-6.73,1.58q-7,0-11.12-4.54t-4.1-12.54v-.77c0-5.08,1.36-9.16,4.07-12.21s6.43-4.59,11.12-4.59a13.71,13.71,0,0,1,9.71,3.48,12.45,12.45,0,0,1,3.94,9.12H519.6a6.91,6.91,0,0,0-2-4.72A6.31,6.31,0,0,0,513,24.09a6.61,6.61,0,0,0-5.62,2.64q-2,2.64-2,8V36c0,3.62.65,6.33,2,8.11A6.61,6.61,0,0,0,513,46.73Z" transform="translate(0 -0.52)"/><path class="cls-4" d="M541.74,10.57v8.12h5.89v5.56h-5.89V42.9a4.12,4.12,0,0,0,.75,2.76,3.52,3.52,0,0,0,2.71.85,11.35,11.35,0,0,0,2.62-.31V52a18.65,18.65,0,0,1-4.94.71q-8.64,0-8.65-9.54V24.25h-5.49V18.69h5.49V10.57Z" transform="translate(0 -0.52)"/></g></g></svg>