<svg id="Layer_1" data-name="Layer 1" xmlns="http://www.w3.org/2000/svg" viewBox="0 0 546.82 58.63"><defs><style>.cls-1{isolation:isolate;}.cls-2{fill:#fff;}.cls-3{fill:#e2231a;}</style></defs><title>Asset 4</title><g id="Layer_2" data-name="Layer 2"><g id="Capa_1" data-name="Capa 1"><g class="cls-1"><path class="cls-2" d="M163.57,12.35H148.16V54.1h-3.8V12.35H129V9.14h34.58Z" transform="translate(0 -2.89)"/></g><g class="cls-1"><path class="cls-2" d="M187.57,54.1a17.35,17.35,0,0,1-.71-4.66,12.9,12.9,0,0,1-5,3.9,15.13,15.13,0,0,1-6.38,1.38A11.18,11.18,0,0,1,167.73,52a8.73,8.73,0,0,1-3-6.79,8.93,8.93,0,0,1,4.06-7.72q4.06-2.85,11.32-2.84h6.7v-3.8a7.34,7.34,0,0,0-2.21-5.64q-2.2-2.05-6.44-2a10.07,10.07,0,0,0-6.39,2,5.85,5.85,0,0,0-2.53,4.75l-3.71,0a8.61,8.61,0,0,1,3.71-6.9,14.23,14.23,0,0,1,9.11-2.92q5.58,0,8.81,2.8a10,10,0,0,1,3.32,7.79V46.47a19.6,19.6,0,0,0,1,7.26v.37ZM176,51.44a12.33,12.33,0,0,0,6.62-1.79,10.55,10.55,0,0,0,4.25-4.78V37.52h-6.61q-5.53.06-8.65,2a6.07,6.07,0,0,0-3.12,5.39,6,6,0,0,0,2.09,4.66A7.82,7.82,0,0,0,176,51.44Z" transform="translate(0 -2.89)"/><path class="cls-2" d="M204.49,54.1h-3.71V6.67h3.71Z" transform="translate(0 -2.89)"/><path class="cls-2" d="M227.46,54.72a14.48,14.48,0,0,1-7.7-2.1,14.31,14.31,0,0,1-5.36-5.85,18.24,18.24,0,0,1-1.91-8.42V37a19.7,19.7,0,0,1,1.86-8.67,14.81,14.81,0,0,1,5.21-6.07,12.84,12.84,0,0,1,7.22-2.21,12,12,0,0,1,9.65,4.16C238.81,27,240,30.78,240,35.57v2.07H216.16v.71a14,14,0,0,0,3.26,9.47,10.36,10.36,0,0,0,8.2,3.78,12,12,0,0,0,5.23-1.08A11.64,11.64,0,0,0,237,47.06l2.32,1.76Q235.21,54.72,227.46,54.72Zm-.68-31.5a9.22,9.22,0,0,0-7,3.06,14.13,14.13,0,0,0-3.48,8.21h20.05v-.4a12.3,12.3,0,0,0-2.75-7.84A8.53,8.53,0,0,0,226.78,23.22Z" transform="translate(0 -2.89)"/><path class="cls-2" d="M250.71,20.69l.13,5.71a13.22,13.22,0,0,1,4.69-4.71,12.19,12.19,0,0,1,6.21-1.62q5.37,0,8,3c1.75,2,2.63,5,2.65,9.08V54.1h-3.67v-22c0-3-.66-5.21-1.9-6.67s-3.24-2.2-6-2.2a9.34,9.34,0,0,0-6.06,2.15,12.54,12.54,0,0,0-3.91,5.79V54.1h-3.68V20.69Z" transform="translate(0 -2.89)"/><path class="cls-2" d="M287.68,12.14v8.55h6.91v3h-6.91V46a7,7,0,0,0,1,4.15A3.91,3.91,0,0,0,292,51.51a24.18,24.18,0,0,0,3-.31l.15,3a12.25,12.25,0,0,1-3.95.52c-2.53,0-4.38-.74-5.53-2.21S284,48.87,284,46V23.72h-6.14v-3H284V12.14Z" transform="translate(0 -2.89)"/></g><g class="cls-1"><path class="cls-2" d="M351.7,39.46q-.69,7.2-5.31,11.23t-12.33,4a17.51,17.51,0,0,1-9.46-2.55,16.68,16.68,0,0,1-6.31-7.24A26,26,0,0,1,316,34v-4.2a26.36,26.36,0,0,1,2.25-11.21,17,17,0,0,1,6.47-7.47,18.06,18.06,0,0,1,9.75-2.63q7.44,0,12,4T351.7,24h-7.78q-.57-4.84-2.83-7t-6.65-2.15a9.11,9.11,0,0,0-7.83,3.73q-2.73,3.72-2.8,10.92v4q0,7.29,2.61,11.13a8.67,8.67,0,0,0,7.64,3.83q4.6,0,6.92-2.07c1.55-1.38,2.52-3.68,2.94-6.89Z" transform="translate(0 -2.89)"/><path class="cls-2" d="M356.54,37.08a19.63,19.63,0,0,1,1.95-8.84,14.18,14.18,0,0,1,5.47-6,15.38,15.38,0,0,1,8.09-2.12,14.57,14.57,0,0,1,11,4.36q4.22,4.35,4.56,11.54l0,1.76a19.86,19.86,0,0,1-1.9,8.84,14.11,14.11,0,0,1-5.43,6,15.53,15.53,0,0,1-8.17,2.13A14.49,14.49,0,0,1,360.79,50q-4.25-4.71-4.25-12.55Zm7.51.65q0,5.16,2.13,8.08a7,7,0,0,0,5.93,2.92,6.84,6.84,0,0,0,5.91-3c1.41-2,2.12-4.87,2.12-8.68a13.27,13.27,0,0,0-2.18-8,7.33,7.33,0,0,0-11.75,0C364.77,31,364.05,33.86,364.05,37.73Z" transform="translate(0 -2.89)"/><path class="cls-2" d="M400.92,20.69l.21,3.86a12,12,0,0,1,9.73-4.48q10.44,0,10.62,12V54.1H414V32.45a6.92,6.92,0,0,0-1.37-4.71q-1.38-1.51-4.5-1.52a7.24,7.24,0,0,0-6.76,4.1V54.1h-7.5V20.69Z" transform="translate(0 -2.89)"/><path class="cls-2" d="M436.09,20.69l.21,3.86A12,12,0,0,1,446,20.07q10.44,0,10.62,12V54.1h-7.5V32.45a6.92,6.92,0,0,0-1.37-4.71q-1.38-1.51-4.5-1.52a7.24,7.24,0,0,0-6.76,4.1V54.1H429V20.69Z" transform="translate(0 -2.89)"/><path class="cls-2" d="M479,54.72a15.49,15.49,0,0,1-11.56-4.5q-4.44-4.48-4.44-12v-.93a20.17,20.17,0,0,1,1.93-8.94,14.84,14.84,0,0,1,5.42-6.13,14.36,14.36,0,0,1,7.79-2.19q6.83,0,10.54,4.36t3.72,12.32v3H470.58a10.09,10.09,0,0,0,2.76,6.55,8.33,8.33,0,0,0,6.1,2.41,10.16,10.16,0,0,0,8.4-4.17l4.05,3.86a13.6,13.6,0,0,1-5.36,4.65A16.81,16.81,0,0,1,479,54.72Zm-.9-28.63a6.31,6.31,0,0,0-5,2.16,11.21,11.21,0,0,0-2.43,6H485v-.56a9.07,9.07,0,0,0-2-5.7A6.29,6.29,0,0,0,478.11,26.09Z" transform="translate(0 -2.89)"/><path class="cls-2" d="M512,48.73a6.78,6.78,0,0,0,4.66-1.64,5.61,5.61,0,0,0,2-4.05h7.07a11,11,0,0,1-1.95,5.83,12.72,12.72,0,0,1-4.94,4.27,14.72,14.72,0,0,1-6.73,1.58q-7,0-11.12-4.54t-4.1-12.54v-.77c0-5.08,1.36-9.16,4.07-12.21s6.43-4.59,11.12-4.59a13.71,13.71,0,0,1,9.71,3.48,12.45,12.45,0,0,1,3.94,9.12H518.6a6.91,6.91,0,0,0-2-4.72A6.31,6.31,0,0,0,512,26.09a6.61,6.61,0,0,0-5.62,2.64q-2,2.64-2,8V38c0,3.62.65,6.33,2,8.11A6.61,6.61,0,0,0,512,48.73Z" transform="translate(0 -2.89)"/><path class="cls-2" d="M540.74,12.57v8.12h5.89v5.56h-5.89V44.9a4.12,4.12,0,0,0,.75,2.76,3.52,3.52,0,0,0,2.71.85,11.35,11.35,0,0,0,2.62-.31V54a18.65,18.65,0,0,1-4.94.71q-8.64,0-8.65-9.54V26.25h-5.49V20.69h5.49V12.57Z" transform="translate(0 -2.89)"/></g><rect class="cls-2" width="117.17" height="58.63"/><path class="cls-3" d="M40.28,27.18a9,9,0,0,0-2.53-6.74c-2-2-5-3.07-8.72-3.07H15.49V47H22V37.5h5.63L33.8,47h7.57L34.05,36.4A9.25,9.25,0,0,0,40.28,27.18ZM28.45,31.64H22V23.23h6.48c3.09,0,5.05,1.4,5.05,4.21C33.52,30,31.54,31.64,28.45,31.64Z" transform="translate(0 -2.89)"/><polygon class="cls-3" points="53.52 32.1 67.32 32.1 67.32 26.24 53.52 26.24 53.52 20.38 69.29 20.38 69.29 14.52 47.04 14.52 47.04 44.11 69.57 44.11 69.57 38.25 53.52 38.25 53.52 32.1"/><path class="cls-3" d="M87.88,17.41H76.33V46.72H87.88c9.26,0,15.77-6.42,15.77-14.8C103.65,23.83,97.17,17.41,87.88,17.41Zm0,23.45h-5V23.27h5c5.35,0,9,3.63,9,8.94C96.86,37.23,93.23,40.86,87.88,40.86Z" transform="translate(0 -2.89)"/></g></g></svg>