<svg xmlns="http://www.w3.org/2000/svg" viewBox="0 0 417.83 113.82"><defs><style>.cls-1{isolation:isolate;}.cls-2{fill:#fff;}.cls-3{fill:#e2231a;}</style></defs><title>Asset 3</title><g id="Layer_2" data-name="Layer 2"><g id="Layer_1-2" data-name="Layer 1"><g id="Layer_2-2" data-name="Layer 2"><g id="Capa_1" data-name="Capa 1"><g class="cls-1"><g class="cls-1"><path class="cls-2" d="M34.58,71.45H19.18V113.2h-3.8V71.45H0V68.24H34.58Z"/></g><g class="cls-1"><path class="cls-2" d="M58.58,113.2a17.35,17.35,0,0,1-.71-4.66,12.85,12.85,0,0,1-4.95,3.9,15.16,15.16,0,0,1-6.38,1.38,11.22,11.22,0,0,1-7.8-2.69,8.76,8.76,0,0,1-3-6.79,9,9,0,0,1,4.06-7.72q4.07-2.85,11.32-2.84h6.7V90a7.34,7.34,0,0,0-2.21-5.64q-2.21-2.06-6.44-2a10.07,10.07,0,0,0-6.39,2A5.85,5.85,0,0,0,40.27,89l-3.71,0a8.61,8.61,0,0,1,3.71-6.9,14.25,14.25,0,0,1,9.11-2.92c3.73,0,6.66.93,8.82,2.8a10,10,0,0,1,3.32,7.79v15.81a19.63,19.63,0,0,0,1,7.26v.37ZM47,110.54a12.33,12.33,0,0,0,6.62-1.79A10.49,10.49,0,0,0,57.84,104V96.62H51.23q-5.52.06-8.64,2A6.07,6.07,0,0,0,39.47,104a6,6,0,0,0,2.08,4.66A7.84,7.84,0,0,0,47,110.54Z"/><path class="cls-2" d="M75.5,113.2H71.8V65.77h3.7Z"/><path class="cls-2" d="M98.48,113.82a14.54,14.54,0,0,1-7.71-2.1,14.29,14.29,0,0,1-5.35-5.85,18.22,18.22,0,0,1-1.92-8.42V96.12a19.56,19.56,0,0,1,1.87-8.67,14.79,14.79,0,0,1,5.2-6.07,12.87,12.87,0,0,1,7.23-2.21,12.08,12.08,0,0,1,9.65,4.16c2.38,2.76,3.56,6.55,3.56,11.34v2.07H87.18v.71a14,14,0,0,0,3.25,9.47,10.37,10.37,0,0,0,8.2,3.78,12.08,12.08,0,0,0,5.24-1.08,11.62,11.62,0,0,0,4.12-3.46l2.31,1.76C107.59,111.85,103.64,113.82,98.48,113.82Zm-.68-31.5a9.25,9.25,0,0,0-7,3.06,14.12,14.12,0,0,0-3.47,8.21h20v-.4a12.24,12.24,0,0,0-2.75-7.84A8.51,8.51,0,0,0,97.8,82.32Z"/><path class="cls-2" d="M121.73,79.79l.12,5.71a13.25,13.25,0,0,1,4.7-4.71,12.18,12.18,0,0,1,6.2-1.62q5.37,0,8,3c1.75,2,2.64,5,2.66,9.08V113.2h-3.68v-22q0-4.48-1.9-6.67c-1.24-1.47-3.24-2.2-6-2.2a9.35,9.35,0,0,0-6.07,2.15,12.62,12.62,0,0,0-3.91,5.79V113.2h-3.67V79.79Z"/><path class="cls-2" d="M158.69,71.24v8.55h6.92v3h-6.92V105.1a7.07,7.07,0,0,0,1,4.15,3.91,3.91,0,0,0,3.35,1.36,24.18,24.18,0,0,0,3-.31l.15,3a12.2,12.2,0,0,1-3.95.52q-3.8,0-5.53-2.21t-1.72-6.5V82.82h-6.15v-3H155V71.24Z"/></g><g class="cls-1"><path class="cls-2" d="M222.71,98.56q-.68,7.2-5.31,11.23t-12.32,4a17.55,17.55,0,0,1-9.47-2.55A16.75,16.75,0,0,1,189.3,104,26.29,26.29,0,0,1,187,93.13v-4.2a26.36,26.36,0,0,1,2.26-11.21,17,17,0,0,1,6.47-7.47,18,18,0,0,1,9.74-2.63q7.44,0,12,4t5.28,11.41h-7.78q-.56-4.84-2.83-7t-6.65-2.15a9.11,9.11,0,0,0-7.83,3.73q-2.73,3.72-2.79,10.92v4q0,7.29,2.61,11.13a8.66,8.66,0,0,0,7.64,3.83c3.07,0,5.37-.69,6.92-2.07s2.52-3.67,2.93-6.89Z"/><path class="cls-2" d="M227.56,96.19a19.77,19.77,0,0,1,1.94-8.85,14.18,14.18,0,0,1,5.47-6,15.4,15.4,0,0,1,8.09-2.12,14.57,14.57,0,0,1,11,4.36q4.22,4.35,4.55,11.54l0,1.76a19.86,19.86,0,0,1-1.9,8.84,14,14,0,0,1-5.43,6,15.53,15.53,0,0,1-8.17,2.13,14.52,14.52,0,0,1-11.32-4.71q-4.25-4.71-4.24-12.55Zm7.5.64q0,5.16,2.13,8.08a7,7,0,0,0,5.93,2.92,6.87,6.87,0,0,0,5.92-3q2.11-3,2.11-8.67a13.28,13.28,0,0,0-2.18-8,7.33,7.33,0,0,0-11.75,0C235.78,90.06,235.06,93,235.06,96.83Z"/><path class="cls-2" d="M271.93,79.79l.22,3.86a12,12,0,0,1,9.73-4.48q10.42,0,10.62,12V113.2H285V91.55a6.87,6.87,0,0,0-1.37-4.71c-.92-1-2.41-1.52-4.49-1.52a7.25,7.25,0,0,0-6.77,4.1V113.2h-7.5V79.79Z"/><path class="cls-2" d="M307.1,79.79l.22,3.86a12,12,0,0,1,9.73-4.48q10.43,0,10.62,12V113.2h-7.5V91.55a6.87,6.87,0,0,0-1.38-4.71q-1.37-1.52-4.49-1.52a7.23,7.23,0,0,0-6.76,4.1V113.2H300V79.79Z"/><path class="cls-2" d="M350,113.82a15.53,15.53,0,0,1-11.56-4.49q-4.43-4.5-4.43-12v-.93A20,20,0,0,1,336,87.49a14.77,14.77,0,0,1,5.42-6.13,14.35,14.35,0,0,1,7.78-2.19q6.82,0,10.55,4.36t3.72,12.32v3H341.59a10.05,10.05,0,0,0,2.77,6.55,8.31,8.31,0,0,0,6.1,2.41,10.18,10.18,0,0,0,8.4-4.17l4,3.86a13.53,13.53,0,0,1-5.36,4.65A16.78,16.78,0,0,1,350,113.82Zm-.89-28.63a6.33,6.33,0,0,0-5,2.16,11.29,11.29,0,0,0-2.42,6H356v-.56a9.19,9.19,0,0,0-2-5.7A6.3,6.3,0,0,0,349.13,85.19Z"/><path class="cls-2" d="M383,107.83a6.81,6.81,0,0,0,4.67-1.64,5.59,5.59,0,0,0,2-4h7.07a11.05,11.05,0,0,1-1.94,5.82,12.79,12.79,0,0,1-4.94,4.27,14.75,14.75,0,0,1-6.73,1.58q-7,0-11.12-4.54t-4.11-12.54V96c0-5.08,1.36-9.16,4.08-12.21s6.42-4.59,11.11-4.59a13.72,13.72,0,0,1,9.72,3.48,12.4,12.4,0,0,1,3.93,9.12h-7.07a6.83,6.83,0,0,0-2-4.72A6.28,6.28,0,0,0,383,85.19a6.61,6.61,0,0,0-5.62,2.64q-2,2.64-2,8v1.2c0,3.62.65,6.33,2,8.11A6.58,6.58,0,0,0,383,107.83Z"/><path class="cls-2" d="M411.75,71.67v8.12h5.9v5.56h-5.9V104a4,4,0,0,0,.76,2.76,3.48,3.48,0,0,0,2.7.85,11.23,11.23,0,0,0,2.62-.31v5.81a18.54,18.54,0,0,1-4.94.71q-8.64,0-8.64-9.54V85.35h-5.5V79.79h5.5V71.67Z"/></g></g><rect class="cls-2" x="158.01" width="99.78" height="49.93"/><path class="cls-3" d="M192.31,20.68A7.65,7.65,0,0,0,190.16,15a10.46,10.46,0,0,0-7.44-2.62H171.2v25.2h5.5v-8.1h4.8l5.29,8.1h6.45l-6.24-9A7.89,7.89,0,0,0,192.31,20.68Zm-10.08,3.81H176.7V17.32h5.52c2.64,0,4.3,1.19,4.3,3.59C186.55,23.06,184.87,24.49,182.23,24.49Z"/><polygon class="cls-3" points="203.59 27.34 215.34 27.34 215.34 22.35 203.59 22.35 203.59 17.36 217.01 17.36 217.01 12.36 198.06 12.36 198.06 37.57 217.25 37.57 217.25 32.57 203.59 32.57 203.59 27.34"/><path class="cls-3" d="M232.84,12.36H223v25h9.83c7.88,0,13.43-5.46,13.43-12.59C246.27,17.83,240.75,12.36,232.84,12.36Zm0,20h-4.3v-15h4.3a7.27,7.27,0,0,1,7.68,6.84,5.34,5.34,0,0,1,0,.8c0,4.25-3.13,7.34-7.68,7.34Z"/></g></g></g></g></svg>