<?xml version="1.0" encoding="UTF-8"?>
<svg width="119px" height="122px" viewBox="0 0 119 122" version="1.1" xmlns="http://www.w3.org/2000/svg" xmlns:xlink="http://www.w3.org/1999/xlink">
    <!-- Generator: Sketch 62 (91390) - https://sketch.com -->
    <title>Design_icon</title>
    <desc>Created with Sketch.</desc>
    <g id="Final" stroke="none" stroke-width="1" fill="none" fill-rule="evenodd">
        <g id="Talent-Connect-1.1" transform="translate(-208.000000, -1762.000000)" fill="#D0382B" fill-rule="nonzero" stroke="#D0382B" stroke-width="1.5">
            <g id="Our_key_qualifications" transform="translate(142.000000, 1631.000000)">
                <g id="Design" transform="translate(0.000000, 85.000000)">
                    <g id="Design_icon" transform="translate(67.000000, 47.000000)">
                        <path d="M99.3747211,47.579028 C98.6025881,46.8069907 97.3508867,46.8069907 96.5789514,47.579028 C95.8070162,48.3514609 95.8070162,49.6036486 96.5789514,50.3758837 C96.609394,50.4063381 96.6410225,50.4373857 96.6716627,50.4658625 C97.0531826,50.8232066 97.5384838,51 98.0227965,51 C98.5502033,51 99.0768193,50.7897859 99.4658509,50.3743017 C100.212286,49.5775449 100.171366,48.3257527 99.3747211,47.579028 Z" id="Path"></path>
                        <path d="M92.9592459,42.8619142 C91.6004505,41.9818125 90.2053351,41.196808 88.812831,40.5281842 C80.9349513,36.7471657 72.5868106,35.9881997 64.6704744,38.3330244 C63.4185025,38.7041298 62.7184523,39.9727714 63.1075273,41.1669203 C63.496365,42.3612955 64.825962,43.0283343 66.078646,42.6576817 C72.797609,40.6672072 79.9208398,41.3297176 86.6782594,44.5729842 C87.8701726,45.145605 89.120008,45.849777 90.2926931,46.6085166 C90.7012337,46.8729773 91.1648479,47 91.6237143,47 C92.3838231,47 93.1308757,46.6524425 93.5899795,46.0071402 C94.3263498,44.9726187 94.0438609,43.5642748 92.9592459,42.8619142 Z" id="Path"></path>
                        <path d="M114.349059,72.3688534 C113.382166,70.355673 111.781131,67.0217526 111.75236,65.9189511 C114.51013,59.1715194 113.504088,51.7047268 108.910635,44.8746611 C101.846885,34.370307 87.369417,26.7459714 74.4868524,26.7459714 C67.6770891,26.7459714 61.027453,28.3579203 55.0449736,31.4350432 C53.3286189,22.1002064 45.0812495,15 35.189217,15 C24.0567304,15 15,23.990021 15,35.0402748 C15,42.0707222 18.6095801,48.4630382 24.6547897,52.1394334 C26.3975571,53.1993963 26.7918611,54.1156275 26.9319428,55.6168514 L26.9319428,63.6094118 L26.9319428,69.3149056 C26.9319428,71.9287628 29.0737308,74.0552432 31.7062764,74.0552432 L32.5080909,74.0552432 C33.803493,84.3027997 38.7997405,93.6067365 46.7306291,100.453189 C46.8053865,100.68447 47.0235272,101.768544 46.0863475,105.002976 C45.3564605,107.522729 44.2362785,110.321752 43.2483959,112.79141 C42.5871348,114.443856 42.0159599,115.871107 41.670708,116.950266 C41.4431342,117.661668 41.5709529,118.438381 42.0150166,119.041164 C42.4593161,119.643714 43.1663279,120 43.9183827,120 L77.5816205,120 C78.6876528,120 80.2068554,119.508409 81.1631371,117.166332 C81.5793731,116.1471 81.8510468,114.920933 82.1389925,113.622432 C82.4191559,112.357405 83.0761721,109.394519 83.7294151,109.036594 C83.7298868,109.036594 83.7680909,109.030274 83.8602995,109.044319 C83.9812792,109.063514 84.1036738,109.072644 84.2263043,109.072644 C87.7516939,109.072644 90.6323303,109.231357 93.1738464,109.37111 C100.628127,109.781705 105.127721,110.029607 109.074771,104.386147 C111.082137,101.515726 110.854563,97.3294816 110.613783,92.8974415 C110.489738,90.613184 110.361683,88.255422 110.589021,86.2953802 C111.000541,85.8929782 112.031108,85.1907059 112.677276,84.7503812 C114.900425,83.2346436 117,81.8036469 117,79.6277734 C117,77.9739223 115.993015,75.7919624 114.349059,72.3688534 Z M27.1191901,48.1467816 C22.4839949,45.328329 19.7167916,40.4288097 19.7167916,35.0400407 C19.7167916,26.5711056 26.6579109,19.6815808 35.1894529,19.6815808 C43.7212306,19.6815808 50.6621141,26.5713397 50.6621141,35.0400407 C50.6621141,40.4288097 47.8951467,45.3285631 43.2597157,48.1472498 C41.0568483,49.4874193 39.7475324,51.0504432 39.1261262,53.1624099 L35.1887454,53.1610054 L31.2532512,53.1624099 C30.6313734,51.0506773 29.3222933,49.4874193 27.1191901,48.1467816 Z M38.7304071,57.8446931 L38.7304071,61.2682702 L31.6489703,61.2682702 L31.6489703,57.8446931 L38.7304071,57.8446931 L38.7304071,57.8446931 Z M31.7067481,69.3731942 C31.6805712,69.3731942 31.6489703,69.3408896 31.6489703,69.3146715 L31.6489703,65.9500852 L38.7304071,65.9500852 L38.7304071,69.3146715 C38.7304071,69.3411237 38.6985704,69.3731942 38.6719218,69.3731942 L31.7067481,69.3731942 Z M110.007942,80.8904589 C107.978172,82.2744034 106.225028,83.4692026 105.966561,85.2773195 C105.611404,87.7577451 105.760447,90.4987136 105.904302,93.1490891 C106.08306,96.4373618 106.2854,100.164555 105.200592,101.715874 C102.854106,105.071331 100.824572,105.103869 93.4353794,104.696317 C90.9973917,104.561949 87.9721929,104.395511 84.385488,104.390361 C83.0080179,104.229306 80.6773319,104.48587 79.1220476,107.487147 C78.3320245,109.011078 77.9075345,110.926174 77.5330399,112.615607 C77.3448494,113.464655 77.0804864,114.657581 76.8328672,115.317717 L47.3133595,115.317717 C47.4166521,115.059047 47.5232463,114.792417 47.6326704,114.518999 C51.0300055,106.027826 53.1816982,99.8000754 49.9065219,96.9895818 C42.9646951,91.0298655 38.5377358,82.9598211 37.2682748,74.0550091 L38.6721577,74.0550091 C41.3051749,74.0550091 43.4471987,71.9285288 43.4471987,69.3146715 L43.4471987,63.6091777 L43.4471987,55.6212991 C43.5870446,54.1172661 43.9801696,53.2003326 45.7243519,52.1391993 C51.3066315,48.7444153 54.8091458,43.0333033 55.3133456,36.64286 C61.1015029,33.2286465 67.7037377,31.4275523 74.4870882,31.4275523 C85.7238107,31.4275523 98.8365433,38.3259725 104.988111,47.4737707 C107.624666,51.3943225 110.17137,57.4935569 107.330117,64.2845295 C106.404729,66.4959848 107.776775,69.5630418 110.09166,74.3834384 C110.841121,75.9438873 111.925929,78.202863 112.213167,79.2581441 C111.725947,79.719537 110.6784,80.4335138 110.007942,80.8904589 Z" id="Shape"></path>
                        <path d="M46.6878638,32.2538005 C46.0540292,29.6676835 44.4783504,27.5964271 42.1308228,26.2630823 C41.0773652,25.6655227 39.7828659,26.1201311 39.2391805,27.2802805 C38.6959244,28.4401935 39.1093228,29.865216 40.162995,30.4632482 C41.4446158,31.1909997 42.223333,32.1796076 42.543148,33.4845984 C43.0494859,35.5506566 42.2836471,37.7861297 41.9475195,38.3666769 C41.3102506,39.467283 41.604094,40.9279842 42.6036767,41.6295083 C42.9612684,41.8806771 43.3607152,42 43.7554398,42 C44.4643987,42 45.1581181,41.6141499 45.5672237,40.9071913 C46.4828818,39.3266946 47.5367686,35.7172361 46.6878638,32.2538005 Z" id="Path"></path>
                        <path d="M36,0 C34.8954,0 34,1.01568813 34,2.26766719 L34,8.73233281 C34,9.98431187 34.8954,11 36,11 C37.1044,11 38,9.98431187 38,8.73233281 L38,2.26766719 C38,1.01568813 37.1044,0 36,0 Z" id="Path"></path>
                        <path d="M8.73233281,32 L2.26766719,32 C1.0152346,32 0,32.8958 0,34 C0,35.1046 1.0152346,36 2.26766719,36 L8.73255958,36 C9.9847654,36 11,35.1046 11,34 C11,32.8958 9.98453863,32 8.73233281,32 Z" id="Path"></path>
                        <path d="M24.6866304,10.6424105 L21.3585073,5.11924058 C20.7134353,4.04875993 19.2847946,3.68238384 18.1679466,4.30009796 C17.0510985,4.91825969 16.668306,6.28685454 17.313378,7.3573352 L20.6415011,12.8805051 C21.0742739,13.5987096 21.8590103,14 22.6661677,14 C23.0625063,14 23.4642166,13.9033143 23.8318282,13.6996477 C24.9489098,13.081486 25.3317024,11.7128911 24.6866304,10.6424105 Z" id="Path"></path>
                        <path d="M12.8806517,20.6413016 L7.35726052,17.3130703 C6.28709089,16.6684445 4.91815998,17.0512495 4.30027241,18.1679003 C3.68216105,19.2850182 4.04895486,20.7132381 5.11934829,21.3583311 L10.6427395,24.6865624 C10.9949869,24.899102 11.3799078,25 11.7594577,25 C12.5328802,25 13.2850425,24.5812268 13.6997276,23.8317324 C14.317839,22.7150816 13.9510451,21.2863946 12.8806517,20.6413016 Z" id="Path"></path>
                        <path d="M66.6997276,18.1681645 C66.0813924,17.0510898 64.7129091,16.6682997 63.6427395,17.3133677 L58.1193483,20.6414702 C57.0489549,21.2865382 56.682161,22.71517 57.3002724,23.8317776 C57.7147338,24.581243 58.4668961,25 59.2403185,25 C59.6198684,25 60.0047893,24.8991059 60.3572605,24.6865745 L65.8806517,21.358472 C66.9510451,20.7134039 67.317839,19.2852392 66.6997276,18.1681645 Z" id="Path"></path>
                        <path d="M13.6998166,47.1681759 C13.0822191,46.0510267 11.7141063,45.6686781 10.643604,46.3128549 L5.11946272,49.6411794 C4.04918412,50.2858233 3.68220589,51.7145505 4.30002717,52.8316997 C4.71444406,53.581215 5.46674944,54 6.24008893,54 C6.61959813,54 7.00425397,53.8990992 7.35668734,53.6870207 L12.8806048,50.3586961 C13.9508834,49.7140522 14.3178617,48.2853251 13.6998166,47.1681759 Z" id="Path"></path>
                        <path d="M22.757003,56.2933428 C21.5690946,55.6893369 20.0492379,56.0480201 19.3629792,57.0943071 L16.3332042,61.7169217 C15.647194,62.7636463 16.0544272,64.1023072 17.2428324,64.7063131 C17.6341639,64.9054599 18.0612742,65 18.4826698,65 C19.3413628,65 20.1767001,64.607615 20.6368562,63.9053488 L23.6666312,59.2827342 C24.3528899,58.2360095 23.9456567,56.8977863 22.757003,56.2933428 Z" id="Path"></path>
                        <path d="M52.8318357,4.3002909 C51.7145276,3.68214147 50.2865967,4.04895788 49.6415288,5.11941724 L46.3134269,10.6424773 C45.668359,11.7129366 46.0509156,13.081728 47.1679901,13.6996537 C47.5358329,13.9033162 47.9375407,14 48.3336432,14 C49.1407955,14 49.9257604,13.5987176 50.3585305,12.8805273 L53.6866324,7.35746733 C54.3317003,6.28700797 53.9489102,4.91844034 52.8318357,4.3002909 Z" id="Path"></path>
                    </g>
                </g>
            </g>
        </g>
    </g>
</svg>